<svg width="1220" height="1089" viewBox="0 0 1220 1089" fill="none" xmlns="http://www.w3.org/2000/svg">
<path d="M825.883 878.562C824.691 822.206 776.32 776.809 717.465 776.585C656.941 776.585 608.57 821.982 608.809 878.562C608.57 934.246 656.941 979.644 717.465 980.538C776.082 979.644 824.691 934.246 825.883 878.562ZM657.18 878.562C655.988 842.78 683.152 813.932 717.227 814.155C749.633 813.932 776.559 842.78 777.035 878.562C776.559 913.672 749.633 942.521 717.227 942.968C683.152 942.521 656.227 913.672 657.18 878.562ZM948.598 819.522H1011.27V784.859H837.082V819.522H902.848V974.947H948.598V819.522ZM1065.59 932.233H1148.75L1165.91 975.171H1220L1137.08 784.859H1080.13L994.348 975.171H1048.68L1065.59 932.233V932.233ZM1108.48 830.257L1136.84 900.03H1079.89L1108.48 830.257ZM62.9062 974.947H108.656V819.522H171.562V784.859H0V819.522H62.9062V974.947ZM400.074 878.562C399.359 822.206 350.75 776.809 291.418 776.585C231.371 776.585 183 821.982 183 878.562C183 934.246 231.371 979.644 291.418 980.538C350.75 979.644 399.121 934.246 400.074 878.562ZM231.609 878.562C230.895 842.78 257.82 813.932 291.418 814.155C324.301 813.932 351.465 842.78 351.465 878.562C351.465 913.672 324.539 942.521 291.418 942.968C257.82 942.521 230.656 913.672 231.609 878.562M502.773 974.947H525.648V902.714L605.711 784.859H554.242L502.773 865.144L454.402 784.859H400.074L480.137 902.714V974.947H502.773ZM597.848 52.4619C297.852 52.4619 54.0898 192.903 54.0898 365.771C54.0898 538.416 298.09 678.857 597.848 678.857C897.605 678.857 1141.61 538.416 1141.61 365.771C1141.61 193.127 897.605 52.4619 597.848 52.4619ZM650.746 96.2939C782.039 103.674 877.59 136.548 893.793 179.485C898.082 191.114 896.891 203.19 889.742 214.372C871.633 243.444 814.922 267.597 734.383 280.344L725.805 281.686L724.375 273.635C711.27 198.047 681.961 138.561 644.789 110.383L623.582 94.5049L650.746 96.2939V96.2939ZM674.813 278.555L676.48 287.5L667.188 288.171C644.551 289.736 621.199 290.631 598.086 290.631C574.734 290.631 551.383 289.736 528.746 288.171L519.215 287.5L520.883 278.555C533.75 210.347 562.82 169.422 597.848 169.422C633.113 169.422 661.707 210.347 674.813 278.555ZM301.902 179.485C318.105 136.548 413.418 103.897 544.949 96.2939L572.113 94.7285L550.906 110.606C513.496 138.561 484.664 198.047 471.32 273.858L469.891 281.909L461.551 280.567C381.012 267.597 324.539 243.668 306.191 214.596C301.664 207.663 299.52 200.507 299.52 193.127C299.281 188.431 300.234 183.958 301.902 179.485V179.485ZM540.422 638.38C305.715 621.831 128.672 506.884 128.672 370.468C128.672 312.547 159.648 257.533 218.742 211.018L229.703 202.52L232.562 215.49C245.191 270.057 332.879 318.809 456.309 339.606L463.457 340.948L462.98 368.455C462.98 484.744 494.91 582.919 546.141 624.067L566.156 640.169L540.422 638.38V638.38ZM513.734 359.063V355.932L513.973 347.21L523.266 347.881C547.332 349.894 572.59 351.012 597.848 351.012C622.867 351.012 648.125 349.894 672.43 347.881L681.723 347.21V359.063C681.723 467.077 645.504 548.927 597.609 548.927C549.953 548.703 513.734 467.077 513.734 359.063V359.063ZM655.273 638.38L629.062 640.169L649.078 624.067C700.547 582.919 732.238 484.968 732.238 368.455L731.762 340.948L738.91 339.83C862.34 319.032 950.266 270.28 962.656 215.714L965.754 202.743L976.477 211.241C1035.57 257.533 1066.55 312.771 1066.55 370.691C1067.02 506.884 890.219 621.831 655.273 638.38Z" fill="#CCCCCC"/>
</svg>
